<mxfile host="Electron" modified="2023-05-10T06:24:02.010Z" agent="Mozilla/5.0 (Windows NT 10.0; Win64; x64) AppleWebKit/537.36 (KHTML, like Gecko) draw.io/21.2.1 Chrome/112.0.5615.87 Electron/24.1.2 Safari/537.36" etag="GjYH_ulwfbJ9kaNYHoq3" version="21.2.1" type="device">
  <diagram name="第 1 页" id="TQ1U1cIo1o6uZmjXo22M">
    <mxGraphModel dx="1835" dy="1358" grid="1" gridSize="10" guides="1" tooltips="1" connect="1" arrows="1" fold="1" page="1" pageScale="1" pageWidth="827" pageHeight="1169" math="0" shadow="0">
      <root>
        <mxCell id="0" />
        <mxCell id="1" parent="0" />
        <mxCell id="6UEYhTfmVz-Z-PMS-RFD-1" value="用户登录信息" style="edgeStyle=orthogonalEdgeStyle;rounded=0;orthogonalLoop=1;jettySize=auto;html=1;exitX=0.5;exitY=0;exitDx=0;exitDy=0;entryX=0;entryY=0.5;entryDx=0;entryDy=0;entryPerimeter=0;" edge="1" parent="1" source="6UEYhTfmVz-Z-PMS-RFD-12" target="6UEYhTfmVz-Z-PMS-RFD-13">
          <mxGeometry relative="1" as="geometry" />
        </mxCell>
        <mxCell id="6UEYhTfmVz-Z-PMS-RFD-2" value="用户账号信息" style="edgeStyle=orthogonalEdgeStyle;rounded=0;orthogonalLoop=1;jettySize=auto;html=1;exitX=0.75;exitY=0;exitDx=0;exitDy=0;entryX=0;entryY=0.5;entryDx=0;entryDy=0;entryPerimeter=0;" edge="1" parent="1" source="6UEYhTfmVz-Z-PMS-RFD-12" target="6UEYhTfmVz-Z-PMS-RFD-24">
          <mxGeometry relative="1" as="geometry" />
        </mxCell>
        <mxCell id="6UEYhTfmVz-Z-PMS-RFD-3" value="评阅教师分配相关信息" style="edgeStyle=orthogonalEdgeStyle;rounded=0;orthogonalLoop=1;jettySize=auto;html=1;exitX=1;exitY=0.75;exitDx=0;exitDy=0;entryX=0;entryY=0.5;entryDx=0;entryDy=0;entryPerimeter=0;" edge="1" parent="1" source="6UEYhTfmVz-Z-PMS-RFD-12" target="6UEYhTfmVz-Z-PMS-RFD-32">
          <mxGeometry x="0.0036" relative="1" as="geometry">
            <mxPoint as="offset" />
          </mxGeometry>
        </mxCell>
        <mxCell id="6UEYhTfmVz-Z-PMS-RFD-55" value="答辩小组管理相关信息" style="edgeStyle=orthogonalEdgeStyle;rounded=0;orthogonalLoop=1;jettySize=auto;html=1;exitX=0.75;exitY=1;exitDx=0;exitDy=0;entryX=0;entryY=0.5;entryDx=0;entryDy=0;entryPerimeter=0;" edge="1" parent="1" source="6UEYhTfmVz-Z-PMS-RFD-12" target="6UEYhTfmVz-Z-PMS-RFD-45">
          <mxGeometry relative="1" as="geometry" />
        </mxCell>
        <mxCell id="6UEYhTfmVz-Z-PMS-RFD-58" value="审阅相关信息" style="edgeStyle=orthogonalEdgeStyle;rounded=0;orthogonalLoop=1;jettySize=auto;html=1;exitX=0.5;exitY=1;exitDx=0;exitDy=0;entryX=0;entryY=0.5;entryDx=0;entryDy=0;entryPerimeter=0;" edge="1" parent="1" source="6UEYhTfmVz-Z-PMS-RFD-12" target="6UEYhTfmVz-Z-PMS-RFD-46">
          <mxGeometry relative="1" as="geometry" />
        </mxCell>
        <mxCell id="6UEYhTfmVz-Z-PMS-RFD-65" value="特殊情况信息" style="edgeStyle=orthogonalEdgeStyle;rounded=0;orthogonalLoop=1;jettySize=auto;html=1;exitX=0;exitY=1;exitDx=0;exitDy=0;entryX=0;entryY=0.5;entryDx=0;entryDy=0;entryPerimeter=0;" edge="1" parent="1" source="6UEYhTfmVz-Z-PMS-RFD-12" target="6UEYhTfmVz-Z-PMS-RFD-48">
          <mxGeometry relative="1" as="geometry" />
        </mxCell>
        <mxCell id="6UEYhTfmVz-Z-PMS-RFD-67" value="审核课题相关信息" style="edgeStyle=orthogonalEdgeStyle;rounded=0;orthogonalLoop=1;jettySize=auto;html=1;exitX=0;exitY=0.75;exitDx=0;exitDy=0;entryX=0;entryY=0.5;entryDx=0;entryDy=0;entryPerimeter=0;" edge="1" parent="1" source="6UEYhTfmVz-Z-PMS-RFD-12" target="6UEYhTfmVz-Z-PMS-RFD-66">
          <mxGeometry relative="1" as="geometry" />
        </mxCell>
        <mxCell id="6UEYhTfmVz-Z-PMS-RFD-12" value="专业毕业设计负责人" style="html=1;dashed=0;whiteSpace=wrap;fillColor=#f5f5f5;fontColor=#333333;strokeColor=#666666;" vertex="1" parent="1">
          <mxGeometry x="40" y="410" width="100" height="50" as="geometry" />
        </mxCell>
        <mxCell id="6UEYhTfmVz-Z-PMS-RFD-13" value="用户登录" style="html=1;dashed=0;whiteSpace=wrap;shape=mxgraph.dfd.start;fillColor=#f5f5f5;fontColor=#333333;strokeColor=#666666;" vertex="1" parent="1">
          <mxGeometry x="300" y="140" width="136" height="60" as="geometry" />
        </mxCell>
        <mxCell id="6UEYhTfmVz-Z-PMS-RFD-14" value="验证" style="edgeStyle=orthogonalEdgeStyle;rounded=0;orthogonalLoop=1;jettySize=auto;html=1;exitX=0.5;exitY=0;exitDx=0;exitDy=0;entryX=1;entryY=0.5;entryDx=0;entryDy=0;entryPerimeter=0;" edge="1" parent="1" source="6UEYhTfmVz-Z-PMS-RFD-16" target="6UEYhTfmVz-Z-PMS-RFD-13">
          <mxGeometry relative="1" as="geometry" />
        </mxCell>
        <mxCell id="6UEYhTfmVz-Z-PMS-RFD-15" value="用户信息" style="edgeStyle=orthogonalEdgeStyle;rounded=0;orthogonalLoop=1;jettySize=auto;html=1;" edge="1" parent="1" source="6UEYhTfmVz-Z-PMS-RFD-16" target="6UEYhTfmVz-Z-PMS-RFD-22">
          <mxGeometry relative="1" as="geometry" />
        </mxCell>
        <mxCell id="6UEYhTfmVz-Z-PMS-RFD-16" value="用户信息表" style="html=1;dashed=0;whiteSpace=wrap;shape=partialRectangle;right=0;fillColor=#f5f5f5;fontColor=#333333;strokeColor=#666666;" vertex="1" parent="1">
          <mxGeometry x="580" y="330" width="110" height="55" as="geometry" />
        </mxCell>
        <mxCell id="6UEYhTfmVz-Z-PMS-RFD-17" value="教师信息" style="edgeStyle=orthogonalEdgeStyle;rounded=0;orthogonalLoop=1;jettySize=auto;html=1;exitX=0;exitY=0.5;exitDx=0;exitDy=0;entryX=1;entryY=0.5;entryDx=0;entryDy=0;entryPerimeter=0;" edge="1" parent="1" source="6UEYhTfmVz-Z-PMS-RFD-18" target="6UEYhTfmVz-Z-PMS-RFD-22">
          <mxGeometry relative="1" as="geometry" />
        </mxCell>
        <mxCell id="6UEYhTfmVz-Z-PMS-RFD-18" value="教师信息表" style="html=1;dashed=0;whiteSpace=wrap;shape=partialRectangle;right=0;fillColor=#f5f5f5;fontColor=#333333;strokeColor=#666666;" vertex="1" parent="1">
          <mxGeometry x="580" y="410" width="110" height="55" as="geometry" />
        </mxCell>
        <mxCell id="6UEYhTfmVz-Z-PMS-RFD-19" value="课题信息" style="edgeStyle=orthogonalEdgeStyle;rounded=0;orthogonalLoop=1;jettySize=auto;html=1;exitX=0;exitY=0.5;exitDx=0;exitDy=0;entryX=0.5;entryY=0.5;entryDx=0;entryDy=30;entryPerimeter=0;" edge="1" parent="1" source="6UEYhTfmVz-Z-PMS-RFD-20" target="6UEYhTfmVz-Z-PMS-RFD-22">
          <mxGeometry relative="1" as="geometry">
            <mxPoint x="390" y="470" as="targetPoint" />
          </mxGeometry>
        </mxCell>
        <mxCell id="6UEYhTfmVz-Z-PMS-RFD-76" value="课题统计信息" style="edgeStyle=orthogonalEdgeStyle;rounded=0;orthogonalLoop=1;jettySize=auto;html=1;exitX=0.25;exitY=1;exitDx=0;exitDy=0;entryX=1;entryY=0.667;entryDx=0;entryDy=0;entryPerimeter=0;" edge="1" parent="1" source="6UEYhTfmVz-Z-PMS-RFD-20" target="6UEYhTfmVz-Z-PMS-RFD-69">
          <mxGeometry x="0.1112" relative="1" as="geometry">
            <mxPoint as="offset" />
          </mxGeometry>
        </mxCell>
        <mxCell id="6UEYhTfmVz-Z-PMS-RFD-20" value="课题信息表" style="html=1;dashed=0;whiteSpace=wrap;shape=partialRectangle;right=0;fillColor=#f5f5f5;fontColor=#333333;strokeColor=#666666;" vertex="1" parent="1">
          <mxGeometry x="580" y="490" width="110" height="55" as="geometry" />
        </mxCell>
        <mxCell id="6UEYhTfmVz-Z-PMS-RFD-21" value="个人信息" style="edgeStyle=orthogonalEdgeStyle;rounded=0;orthogonalLoop=1;jettySize=auto;html=1;exitX=0;exitY=0.5;exitDx=0;exitDy=0;exitPerimeter=0;entryX=1;entryY=0.5;entryDx=0;entryDy=0;" edge="1" parent="1" source="6UEYhTfmVz-Z-PMS-RFD-22" target="6UEYhTfmVz-Z-PMS-RFD-12">
          <mxGeometry relative="1" as="geometry" />
        </mxCell>
        <mxCell id="6UEYhTfmVz-Z-PMS-RFD-22" value="查看个人信息" style="html=1;dashed=0;whiteSpace=wrap;shape=mxgraph.dfd.start;fillColor=#f5f5f5;fontColor=#333333;strokeColor=#666666;" vertex="1" parent="1">
          <mxGeometry x="370" y="405" width="136" height="60" as="geometry" />
        </mxCell>
        <mxCell id="6UEYhTfmVz-Z-PMS-RFD-23" value="修改后的用户账号信息" style="edgeStyle=orthogonalEdgeStyle;rounded=0;orthogonalLoop=1;jettySize=auto;html=1;exitX=1;exitY=0.5;exitDx=0;exitDy=0;exitPerimeter=0;entryX=0.25;entryY=0;entryDx=0;entryDy=0;" edge="1" parent="1" source="6UEYhTfmVz-Z-PMS-RFD-24" target="6UEYhTfmVz-Z-PMS-RFD-16">
          <mxGeometry relative="1" as="geometry" />
        </mxCell>
        <mxCell id="6UEYhTfmVz-Z-PMS-RFD-24" value="账号管理" style="html=1;dashed=0;whiteSpace=wrap;shape=mxgraph.dfd.start;fillColor=#f5f5f5;fontColor=#333333;strokeColor=#666666;" vertex="1" parent="1">
          <mxGeometry x="346" y="240" width="136" height="60" as="geometry" />
        </mxCell>
        <mxCell id="6UEYhTfmVz-Z-PMS-RFD-25" value="选题信息" style="edgeStyle=orthogonalEdgeStyle;rounded=0;orthogonalLoop=1;jettySize=auto;html=1;exitX=0.25;exitY=0;exitDx=0;exitDy=0;" edge="1" parent="1" source="6UEYhTfmVz-Z-PMS-RFD-26" target="6UEYhTfmVz-Z-PMS-RFD-22">
          <mxGeometry relative="1" as="geometry">
            <mxPoint x="410" y="470" as="targetPoint" />
            <Array as="points">
              <mxPoint x="430" y="554" />
              <mxPoint x="430" y="530" />
              <mxPoint x="410" y="530" />
            </Array>
          </mxGeometry>
        </mxCell>
        <mxCell id="6UEYhTfmVz-Z-PMS-RFD-75" value="选题统计信息" style="edgeStyle=orthogonalEdgeStyle;rounded=0;orthogonalLoop=1;jettySize=auto;html=1;exitX=0.75;exitY=1;exitDx=0;exitDy=0;entryX=0.999;entryY=0.262;entryDx=0;entryDy=0;entryPerimeter=0;" edge="1" parent="1" source="6UEYhTfmVz-Z-PMS-RFD-26" target="6UEYhTfmVz-Z-PMS-RFD-69">
          <mxGeometry relative="1" as="geometry" />
        </mxCell>
        <mxCell id="6UEYhTfmVz-Z-PMS-RFD-26" value="选题信息表" style="html=1;dashed=0;whiteSpace=wrap;shape=partialRectangle;right=0;fillColor=#f5f5f5;fontColor=#333333;strokeColor=#666666;" vertex="1" parent="1">
          <mxGeometry x="440" y="554" width="110" height="62" as="geometry" />
        </mxCell>
        <mxCell id="6UEYhTfmVz-Z-PMS-RFD-31" value="评阅教师分配信息" style="edgeStyle=orthogonalEdgeStyle;rounded=0;orthogonalLoop=1;jettySize=auto;html=1;exitX=1;exitY=0.5;exitDx=0;exitDy=0;exitPerimeter=0;" edge="1" parent="1" source="6UEYhTfmVz-Z-PMS-RFD-32" target="6UEYhTfmVz-Z-PMS-RFD-26">
          <mxGeometry relative="1" as="geometry" />
        </mxCell>
        <mxCell id="6UEYhTfmVz-Z-PMS-RFD-32" value="分配评阅老师" style="html=1;dashed=0;whiteSpace=wrap;shape=mxgraph.dfd.start;fillColor=#f5f5f5;fontColor=#333333;strokeColor=#666666;" vertex="1" parent="1">
          <mxGeometry x="190" y="556" width="136" height="60" as="geometry" />
        </mxCell>
        <mxCell id="6UEYhTfmVz-Z-PMS-RFD-57" value="答辩小组管理信息" style="edgeStyle=orthogonalEdgeStyle;rounded=0;orthogonalLoop=1;jettySize=auto;html=1;exitX=1;exitY=0.5;exitDx=0;exitDy=0;exitPerimeter=0;entryX=0.25;entryY=1;entryDx=0;entryDy=0;" edge="1" parent="1" source="6UEYhTfmVz-Z-PMS-RFD-45" target="6UEYhTfmVz-Z-PMS-RFD-26">
          <mxGeometry relative="1" as="geometry" />
        </mxCell>
        <mxCell id="6UEYhTfmVz-Z-PMS-RFD-45" value="管理答辩小组" style="html=1;dashed=0;whiteSpace=wrap;shape=mxgraph.dfd.start;fillColor=#f5f5f5;fontColor=#333333;strokeColor=#666666;" vertex="1" parent="1">
          <mxGeometry x="190" y="640" width="136" height="60" as="geometry" />
        </mxCell>
        <mxCell id="6UEYhTfmVz-Z-PMS-RFD-59" value="审阅信息" style="edgeStyle=orthogonalEdgeStyle;rounded=0;orthogonalLoop=1;jettySize=auto;html=1;exitX=1;exitY=0.5;exitDx=0;exitDy=0;exitPerimeter=0;entryX=0.5;entryY=1;entryDx=0;entryDy=0;" edge="1" parent="1" source="6UEYhTfmVz-Z-PMS-RFD-46" target="6UEYhTfmVz-Z-PMS-RFD-26">
          <mxGeometry relative="1" as="geometry" />
        </mxCell>
        <mxCell id="6UEYhTfmVz-Z-PMS-RFD-46" value="审阅外出毕业设计" style="html=1;dashed=0;whiteSpace=wrap;shape=mxgraph.dfd.start;fillColor=#f5f5f5;fontColor=#333333;strokeColor=#666666;" vertex="1" parent="1">
          <mxGeometry x="190" y="720" width="136" height="60" as="geometry" />
        </mxCell>
        <mxCell id="6UEYhTfmVz-Z-PMS-RFD-54" value="审核修改信息" style="edgeStyle=orthogonalEdgeStyle;rounded=0;orthogonalLoop=1;jettySize=auto;html=1;exitX=1;exitY=0.5;exitDx=0;exitDy=0;exitPerimeter=0;" edge="1" parent="1" source="6UEYhTfmVz-Z-PMS-RFD-48" target="6UEYhTfmVz-Z-PMS-RFD-20">
          <mxGeometry x="0.2419" y="-5" relative="1" as="geometry">
            <mxPoint y="-1" as="offset" />
          </mxGeometry>
        </mxCell>
        <mxCell id="6UEYhTfmVz-Z-PMS-RFD-48" value="特殊情况处理" style="html=1;dashed=0;whiteSpace=wrap;shape=mxgraph.dfd.start;fillColor=#f5f5f5;fontColor=#333333;strokeColor=#666666;" vertex="1" parent="1">
          <mxGeometry x="120" y="880" width="136" height="60" as="geometry" />
        </mxCell>
        <mxCell id="6UEYhTfmVz-Z-PMS-RFD-68" value="审核课题信息" style="edgeStyle=orthogonalEdgeStyle;rounded=0;orthogonalLoop=1;jettySize=auto;html=1;exitX=1;exitY=0.5;exitDx=0;exitDy=0;exitPerimeter=0;entryX=0.75;entryY=1;entryDx=0;entryDy=0;" edge="1" parent="1" source="6UEYhTfmVz-Z-PMS-RFD-66" target="6UEYhTfmVz-Z-PMS-RFD-20">
          <mxGeometry relative="1" as="geometry" />
        </mxCell>
        <mxCell id="6UEYhTfmVz-Z-PMS-RFD-66" value="审核课题" style="html=1;dashed=0;whiteSpace=wrap;shape=mxgraph.dfd.start;fillColor=#f5f5f5;fontColor=#333333;strokeColor=#666666;" vertex="1" parent="1">
          <mxGeometry x="120" y="960" width="136" height="60" as="geometry" />
        </mxCell>
        <mxCell id="6UEYhTfmVz-Z-PMS-RFD-77" value="统计信息" style="edgeStyle=orthogonalEdgeStyle;rounded=0;orthogonalLoop=1;jettySize=auto;html=1;exitX=0;exitY=0.5;exitDx=0;exitDy=0;exitPerimeter=0;entryX=0.25;entryY=1;entryDx=0;entryDy=0;" edge="1" parent="1" source="6UEYhTfmVz-Z-PMS-RFD-69" target="6UEYhTfmVz-Z-PMS-RFD-12">
          <mxGeometry relative="1" as="geometry" />
        </mxCell>
        <mxCell id="6UEYhTfmVz-Z-PMS-RFD-69" value="过程信息统计" style="html=1;dashed=0;whiteSpace=wrap;shape=mxgraph.dfd.start;fillColor=#f5f5f5;fontColor=#333333;strokeColor=#666666;" vertex="1" parent="1">
          <mxGeometry x="150" y="800" width="136" height="60" as="geometry" />
        </mxCell>
      </root>
    </mxGraphModel>
  </diagram>
</mxfile>
